# xmcd
#
# Track frame offsets:
#  150
#  8602
#  18023
#  27280
#  39207
#  50611
#  56563
#  67910
#  79992
#  92284
#  102405
#  112688
#
# Disc length: 1663 seconds
#
# Revision: 0
# Processed by: cddbd v1.5.1PL2 Copyright (c) Steve Scherf et al.
# Submitted via: Collectorz.com_Music_Collector 6.9
#
DISCID=7c067d0c
DTITLE=Cash, Johnny - Now Here's Johnny Cash
DYEAR=1961
DGENRE=Traditional Country
TTITLE0=Sugar Time 
TTITLE1=Down The Street To 301 
TTITLE2=Life Goes On 
TTITLE3=Port Of Lonely Hearts 
TTITLE4=Cry Cry Cry 
TTITLE5=My Treasure 
TTITLE6=Oh Lonesome Me 
TTITLE7=So Doggone Lonesome 
TTITLE8=You're The Nearest Thing To Heaven 
TTITLE9=Story Of A Broken Heart
TTITLE10=Hey Porter
TTITLE11=Home Of The Blues
EXTD=
EXTT0=
EXTT1=
EXTT2=
EXTT3=
EXTT4=
EXTT5=
EXTT6=
EXTT7=
EXTT8=
EXTT9=
EXTT10=
EXTT11=
PLAYORDER=
